<svg width="25" height="13" viewBox="0 0 25 13" fill="none" xmlns="http://www.w3.org/2000/svg">
<path d="M22.3211 0.991672L13.2439 9.92549C13.0459 10.1214 12.7785 10.2313 12.4999 10.2313C12.2213 10.2313 11.954 10.1214 11.7559 9.92549L2.67874 0.993611C2.47946 0.797777 2.21123 0.688045 1.93183 0.688045C1.65243 0.688045 1.38421 0.797777 1.18493 0.993611C1.0868 1.08928 1.00881 1.20362 0.955558 1.3299C0.902308 1.45618 0.874875 1.59185 0.874875 1.72889C0.874875 1.86594 0.902309 2.0016 0.955558 2.12788C1.00881 2.25416 1.0868 2.36851 1.18493 2.46417L10.2602 11.396C10.8579 11.983 11.6622 12.3118 12.4999 12.3118C13.3377 12.3118 14.1419 11.983 14.7397 11.396L23.8149 2.46417C23.9134 2.36847 23.9916 2.25401 24.045 2.12755C24.0984 2.00109 24.126 1.8652 24.126 1.72792C24.126 1.59064 24.0984 1.45475 24.045 1.32829C23.9916 1.20183 23.9134 1.08737 23.8149 0.991672C23.6156 0.795837 23.3474 0.686105 23.068 0.686105C22.7886 0.686105 22.5204 0.795838 22.3211 0.991672Z" fill="white"/>
</svg>
