<svg width="304" height="42" viewBox="0 0 304 42" fill="none" xmlns="http://www.w3.org/2000/svg">
<path d="M56.4499 33C55.5752 33 54.7752 32.7867 54.0499 32.36C53.3459 31.9333 52.7805 31.368 52.3539 30.664C51.9272 29.9387 51.7139 29.1387 51.7139 28.264V14.696C51.7139 13.8213 51.9272 13.032 52.3539 12.328C52.7805 11.6027 53.3459 11.0267 54.0499 10.6C54.7752 10.1733 55.5752 9.96 56.4499 9.96H74.6899V14.952H57.7299C57.3885 14.952 57.1219 15.0373 56.9299 15.208C56.7592 15.3787 56.6739 15.6453 56.6739 16.008V26.952C56.6739 27.2933 56.7592 27.56 56.9299 27.752C57.1219 27.9227 57.3885 28.008 57.7299 28.008H74.6899V33H56.4499ZM82.6984 33C81.845 33 81.0557 32.7867 80.3304 32.36C79.605 31.9333 79.029 31.3573 78.6024 30.632C78.1757 29.9067 77.9624 29.1173 77.9624 28.264V14.696C77.9624 13.8213 78.1757 13.032 78.6024 12.328C79.029 11.6027 79.605 11.0267 80.3304 10.6C81.0557 10.1733 81.845 9.96 82.6984 9.96H96.2664C97.1197 9.96 97.8984 10.1733 98.6024 10.6C99.3277 11.0267 99.9037 11.6027 100.33 12.328C100.778 13.032 101.002 13.8213 101.002 14.696V28.264C101.002 29.1173 100.778 29.9067 100.33 30.632C99.9037 31.3573 99.3277 31.9333 98.6024 32.36C97.8984 32.7867 97.1197 33 96.2664 33H82.6984ZM82.9224 28.008H95.9784V14.952H82.9224V28.008ZM103.726 33V9.96H108.622V33H103.726ZM111.37 33V9.96H116.49L129.386 25.32V9.96H134.41V33H129.29L116.33 17.576V33H111.37ZM148.308 33V9.96H153.428L166.324 25.32V9.96H171.348V33H166.228L153.268 17.576V33H148.308ZM174.997 33V14.696C174.997 13.8213 175.21 13.032 175.637 12.328C176.063 11.6027 176.639 11.0267 177.365 10.6C178.09 10.1733 178.879 9.96 179.733 9.96H193.269C194.143 9.96 194.933 10.1733 195.637 10.6C196.362 11.0267 196.938 11.6027 197.365 12.328C197.813 13.032 198.037 13.8213 198.037 14.696V33H193.013V25.576H179.957V33H174.997ZM179.957 20.584H193.013V14.952H179.957V20.584ZM201.683 33V9.96H206.803L214.611 19.272L222.387 9.96H227.539V33H222.547V17.544L214.611 27.016L206.643 17.576V33H201.683ZM231.434 33V9.96H252.714V14.952H236.458V18.984H249.546V23.976H236.458V28.008H252.714V33H231.434Z" fill="#23A200"/>
</svg>
