<svg width="36" height="36" viewBox="0 0 36 36" fill="none" xmlns="http://www.w3.org/2000/svg">
<path d="M31.5 13.41C31.4845 13.2722 31.4543 13.1364 31.41 13.005V12.87C31.3395 12.7148 31.2432 12.5728 31.125 12.45L22.125 3.45C22.0022 3.33183 21.8602 3.23545 21.705 3.165C21.6603 3.15821 21.6147 3.15821 21.57 3.165C21.4173 3.07833 21.2492 3.02229 21.075 3H15C13.8065 3 12.6619 3.47411 11.818 4.31802C10.9741 5.16193 10.5 6.30653 10.5 7.5V9H9C7.80653 9 6.66193 9.47411 5.81802 10.318C4.97411 11.1619 4.5 12.3065 4.5 13.5V28.5C4.5 29.6935 4.97411 30.8381 5.81802 31.682C6.66193 32.5259 7.80653 33 9 33H21C22.1935 33 23.3381 32.5259 24.182 31.682C25.0259 30.8381 25.5 29.6935 25.5 28.5V27H27C28.1935 27 29.3381 26.5259 30.182 25.682C31.0259 24.8381 31.5 23.6935 31.5 22.5V13.41ZM22.5 8.115L26.385 12H24C23.6022 12 23.2206 11.842 22.9393 11.5607C22.658 11.2794 22.5 10.8978 22.5 10.5V8.115ZM22.5 28.5C22.5 28.8978 22.342 29.2794 22.0607 29.5607C21.7794 29.842 21.3978 30 21 30H9C8.60218 30 8.22064 29.842 7.93934 29.5607C7.65804 29.2794 7.5 28.8978 7.5 28.5V13.5C7.5 13.1022 7.65804 12.7206 7.93934 12.4393C8.22064 12.158 8.60218 12 9 12H10.5V22.5C10.5 23.6935 10.9741 24.8381 11.818 25.682C12.6619 26.5259 13.8065 27 15 27H22.5V28.5ZM28.5 22.5C28.5 22.8978 28.342 23.2794 28.0607 23.5607C27.7794 23.842 27.3978 24 27 24H15C14.6022 24 14.2206 23.842 13.9393 23.5607C13.658 23.2794 13.5 22.8978 13.5 22.5V7.5C13.5 7.10217 13.658 6.72064 13.9393 6.43934C14.2206 6.15804 14.6022 6 15 6H19.5V10.5C19.5 11.6935 19.9741 12.8381 20.818 13.682C21.6619 14.5259 22.8065 15 24 15H28.5V22.5Z" fill="white"/>
</svg>
