<svg width="36" height="36" viewBox="0 0 36 36" fill="none" xmlns="http://www.w3.org/2000/svg">
<path d="M15 3.5H21.0332C21.135 3.51573 21.2335 3.54869 21.3232 3.59961L21.4736 3.68555L21.584 3.66797C21.6047 3.67995 21.6267 3.6897 21.6465 3.70312L21.7783 3.81055L30.7646 12.7969L30.8721 12.9287C30.8866 12.9501 30.8974 12.9737 30.9102 12.9961V13.0869L30.9365 13.165C30.9675 13.257 30.988 13.352 31 13.4482V22.5C31 23.5609 30.5783 24.578 29.8281 25.3281C29.078 26.0783 28.0609 26.5 27 26.5H25V28.5C25 29.5609 24.5783 30.578 23.8281 31.3281C23.078 32.0783 22.0609 32.5 21 32.5H9C7.93913 32.5 6.92202 32.0783 6.17188 31.3281C5.42173 30.578 5 29.5609 5 28.5V13.5C5 12.4391 5.42173 11.422 6.17188 10.6719C6.92202 9.92173 7.93913 9.5 9 9.5H11V7.5C11 6.43913 11.4217 5.42202 12.1719 4.67188C12.922 3.92173 13.9391 3.5 15 3.5ZM9 11.5C8.46957 11.5 7.96101 11.7109 7.58594 12.0859C7.21087 12.461 7 12.9696 7 13.5V28.5C7 29.0304 7.21087 29.539 7.58594 29.9141C7.96101 30.2891 8.46957 30.5 9 30.5H21C21.5304 30.5 22.039 30.2891 22.4141 29.9141C22.7891 29.539 23 29.0304 23 28.5V26.5H15C13.9391 26.5 12.922 26.0783 12.1719 25.3281C11.4217 24.578 11 23.5609 11 22.5V11.5H9ZM15 5.5C14.4696 5.5 13.961 5.71086 13.5859 6.08594C13.2109 6.46101 13 6.96957 13 7.5V22.5C13 23.0304 13.2109 23.539 13.5859 23.9141C13.961 24.2891 14.4696 24.5 15 24.5H27C27.5304 24.5 28.039 24.2891 28.4141 23.9141C28.7891 23.539 29 23.0304 29 22.5V14.5H24C22.9391 14.5 21.922 14.0783 21.1719 13.3281C20.4217 12.578 20 11.5609 20 10.5V5.5H15ZM22 10.5C22 11.0304 22.2109 11.539 22.5859 11.9141C22.961 12.2891 23.4696 12.5 24 12.5H27.5918L22 6.9082V10.5Z" fill="black" stroke="black"/>
</svg>
